SplineFontDB: 3.0
FontName: MiniCaulixtla-Bold
FullName: MiniCaulixtla-Bold
FamilyName: MiniCaulixtla
Weight: Bold
Copyright: (c) Copyright 1989-1992, Bitstream Inc., Cambridge, MA. You are hereby granted permission under all Bitstream propriety rights to use, copy, modify, sublicense, sell, and redistribute the 4 Bitstream Charter (r) Type 1 outline fonts and the 4 Courier Type 1 outline fonts for any purpose and without restriction; provided, that this notice is left intact on all copies of such fonts and that Bitstream's trademark is acknowledged as shown below on all unmodified copies of the 4 Charter Type 1 fonts: "BITSTREAM CHARTER is a registered trademark of Bitstream Inc."
Version: 2.0-1.0; ttfautohint (v1.1) -l 8 -r 50 -G 200 -x 14 -D latn -f none -w G -W
ItalicAngle: 0
UnderlinePosition: -194
UnderlineWidth: 84
Ascent: 762
Descent: 238
InvalidEm: 0
sfntRevision: 0x00020000
LayerCount: 2
Layer: 0 1 "Back" 1
Layer: 1 1 "Fore" 0
XUID: [1021 590 -1373747595 10940]
StyleMap: 0x0020
FSType: 8
OS2Version: 3
OS2_WeightWidthSlopeOnly: 0
OS2_UseTypoMetrics: 0
CreationTime: 1373507893
ModificationTime: 1528083431
PfmFamily: 17
TTFWeight: 700
TTFWidth: 5
LineGap: 0
VLineGap: 0
Panose: 2 0 8 3 7 0 0 2 0 4
OS2TypoAscent: 762
OS2TypoAOffset: 0
OS2TypoDescent: -238
OS2TypoDOffset: 0
OS2TypoLinegap: 218
OS2WinAscent: 929
OS2WinAOffset: 0
OS2WinDescent: 236
OS2WinDOffset: 0
HheadAscent: 946
HheadAOffset: 0
HheadDescent: -238
HheadDOffset: 0
OS2SubXSize: 700
OS2SubYSize: 650
OS2SubXOff: 0
OS2SubYOff: 140
OS2SupXSize: 700
OS2SupYSize: 650
OS2SupXOff: 0
OS2SupYOff: 477
OS2StrikeYSize: 91
OS2StrikeYPos: 240
OS2CapHeight: 671
OS2XHeight: 487
OS2Vendor: 'pyrs'
OS2CodePages: 00000001.00000000
OS2UnicodeRanges: 00000001.00000000.00000000.00000000
MarkAttachClasses: 1
DEI: 91125
TtTable: prep
SVTCA[y-axis]
MPPEM
PUSHW_1
 200
GT
IF
PUSHB_2
 1
 1
INSTCTRL
EIF
PUSHB_1
 1
PUSHW_2
 2048
 2048
MUL
WCVTF
PUSHB_2
 0
 5
WS
PUSHB_3
 23
 1
 0
LOOPCALL
PUSHB_2
 0
 5
WS
PUSHB_4
 10
 8
 1
 8

StartChar: comma
Encoding: 44 44 4
Width: 289
GlyphClass: 2
Flags: W
LayerCount: 2
Fore
SplineSet
31 -129 m 1,0,1
 85 -119 85 -119 113.5 -87 c 128,-1,2
 142 -55 142 -55 142 -3 c 2,3,-1
 142 7 l 1,4,-1
 80 7 l 1,5,6
 59 29 59 29 59 61 c 0,7,8
 59 92 59 92 78 110.5 c 128,-1,9
 97 129 97 129 128 129 c 0,10,11
 170 129 170 129 195 101 c 128,-1,12
 220 73 220 73 220 23 c 0,13,14
 220 -15 220 -15 206.5 -49 c 128,-1,15
 193 -83 193 -83 168.5 -109 c 128,-1,16
 144 -135 144 -135 109 -152.5 c 128,-1,17
 74 -170 74 -170 31 -175 c 1,18,-1
 31 -129 l 1,0,1
EndSplineSet
EndChar

StartChar: period
Encoding: 46 46 5
Width: 289
GlyphClass: 2
Flags: W
LayerCount: 2
Fore
SplineSet
144 151 m 0,0,1
 177 151 177 151 200.5 127.5 c 128,-1,2
 224 104 224 104 224 71 c 256,3,4
 224 38 224 38 200.5 15 c 128,-1,5
 177 -8 177 -8 144 -8 c 0,6,7
 112 -8 112 -8 89 15 c 128,-1,8
 66 38 66 38 66 71 c 0,9,10
 66 105 66 105 89 128 c 128,-1,11
 112 151 112 151 144 151 c 0,0,1
EndSplineSet
EndChar

StartChar: zero
Encoding: 48 48 6
Width: 581
GlyphClass: 2
Flags: W
LayerCount: 2
Fore
SplineSet
293 683 m 256,0,1
 351 683 351 683 398 659.5 c 128,-1,2
 445 636 445 636 478.5 591.5 c 128,-1,3
 512 547 512 547 530 482 c 128,-1,4
 548 417 548 417 548 335 c 0,5,6
 548 252 548 252 530 187.5 c 128,-1,7
 512 123 512 123 478.5 79 c 128,-1,8
 445 35 445 35 398 11.5 c 128,-1,9
 351 -12 351 -12 293 -12 c 256,10,11
 235 -12 235 -12 188.5 11 c 128,-1,12
 142 34 142 34 109 78.5 c 128,-1,13
 76 123 76 123 58 187.5 c 128,-1,14
 40 252 40 252 40 335 c 256,15,16
 40 418 40 418 58 482.5 c 128,-1,17
 76 547 76 547 109 591.5 c 128,-1,18
 142 636 142 636 188.5 659.5 c 128,-1,19
 235 683 235 683 293 683 c 256,0,1
294 627 m 256,20,21
 176 627 176 627 176 339 c 0,22,23
 176 45 176 45 294 45 c 256,24,25
 412 45 412 45 412 336 c 256,26,27
 412 627 412 627 294 627 c 256,20,21
EndSplineSet
EndChar

StartChar: one
Encoding: 49 49 7
Width: 581
GlyphClass: 2
Flags: W
LayerCount: 2
Fore
SplineSet
390 681 m 1,0,-1
 390 70 l 1,1,-1
 401 54 l 1,2,-1
 495 50 l 1,3,-1
 495 0 l 1,4,-1
 148 0 l 1,5,-1
 148 50 l 1,6,-1
 248 56 l 1,7,-1
 260 74 l 1,8,-1
 260 566 l 1,9,-1
 251 578 l 1,10,-1
 109 557 l 1,11,-1
 109 608 l 1,12,-1
 325 681 l 1,13,-1
 390 681 l 1,0,-1
EndSplineSet
EndChar

StartChar: two
Encoding: 50 50 8
Width: 581
GlyphClass: 2
Flags: W
LayerCount: 2
Fore
SplineSet
453 102 m 1,0,-1
 471 190 l 1,1,-1
 532 190 l 1,2,-1
 532 0 l 1,3,-1
 48 0 l 1,4,-1
 48 79 l 1,5,6
 127 140 127 140 187.5 193 c 128,-1,7
 248 246 248 246 289.5 294 c 128,-1,8
 331 342 331 342 352 387 c 128,-1,9
 373 432 373 432 373 479 c 0,10,11
 373 546 373 546 340 582.5 c 128,-1,12
 307 619 307 619 250 619 c 0,13,14
 222 619 222 619 192 607 c 1,15,-1
 192 478 l 1,16,17
 159 460 159 460 129 460 c 0,18,19
 96 460 96 460 76.5 479 c 128,-1,20
 57 498 57 498 57 530 c 0,21,22
 57 561 57 561 73.5 589 c 128,-1,23
 90 617 90 617 120.5 638 c 128,-1,24
 151 659 151 659 194.5 671 c 128,-1,25
 238 683 238 683 292 683 c 0,26,27
 342 683 342 683 382.5 669 c 128,-1,28
 423 655 423 655 451.5 629 c 128,-1,29
 480 603 480 603 495.5 567 c 128,-1,30
 511 531 511 531 511 488 c 0,31,32
 511 440 511 440 489.5 395 c 128,-1,33
 468 350 468 350 425.5 303.5 c 128,-1,34
 383 257 383 257 319.5 208 c 128,-1,35
 256 159 256 159 173 102 c 1,36,-1
 453 102 l 1,0,-1
EndSplineSet
EndChar

StartChar: three
Encoding: 51 51 9
Width: 581
GlyphClass: 2
Flags: W
LayerCount: 2
Fore
SplineSet
334 353 m 1,0,1
 426 346 426 346 474.5 304 c 128,-1,2
 523 262 523 262 523 193 c 0,3,4
 523 151 523 151 503.5 113.5 c 128,-1,5
 484 76 484 76 448 48.5 c 128,-1,6
 412 21 412 21 360 5 c 128,-1,7
 308 -11 308 -11 244 -11 c 0,8,9
 198 -11 198 -11 160.5 -1 c 128,-1,10
 123 9 123 9 97 26.5 c 128,-1,11
 71 44 71 44 56.5 66.5 c 128,-1,12
 42 89 42 89 42 114 c 0,13,14
 42 143 42 143 61.5 161 c 128,-1,15
 81 179 81 179 113 179 c 0,16,17
 122 179 122 179 131.5 177 c 128,-1,18
 141 175 141 175 152 171 c 1,19,-1
 184 63 l 1,20,21
 223 48 223 48 253 48 c 0,22,23
 281 48 281 48 305.5 58.5 c 128,-1,24
 330 69 330 69 348 88 c 128,-1,25
 366 107 366 107 376.5 132.5 c 128,-1,26
 387 158 387 158 387 187 c 0,27,28
 387 242 387 242 350 276 c 128,-1,29
 313 310 313 310 249 310 c 0,30,31
 238 310 238 310 222.5 309 c 128,-1,32
 207 308 207 308 187 305 c 1,33,-1
 187 377 l 1,34,35
 195 376 195 376 202 376 c 128,-1,36
 209 376 209 376 216 376 c 0,37,38
 287 376 287 376 325 408.5 c 128,-1,39
 363 441 363 441 363 499 c 0,40,41
 363 552 363 552 328.5 585 c 128,-1,42
 294 618 294 618 239 618 c 0,43,44
 213 618 213 618 183 606 c 1,45,-1
 183 489 l 1,46,47
 161 475 161 475 130 475 c 0,48,49
 98 475 98 475 78 494.5 c 128,-1,50
 58 514 58 514 58 544 c 0,51,52
 58 571 58 571 73.5 596 c 128,-1,53
 89 621 89 621 118.5 640 c 128,-1,54
 148 659 148 659 189 670.5 c 128,-1,55
 230 682 230 682 281 682 c 0,56,57
 331 682 331 682 371 669 c 128,-1,58
 411 656 411 656 439.5 633.5 c 128,-1,59
 468 611 468 611 483 580 c 128,-1,60
 498 549 498 549 498 513 c 0,61,62
 498 453 498 453 456.5 412.5 c 128,-1,63
 415 372 415 372 334 353 c 1,0,1
EndSplineSet
EndChar

StartChar: four
Encoding: 52 52 10
Width: 581
GlyphClass: 2
Flags: W
LayerCount: 2
Fore
SplineSet
453 677 m 1,0,-1
 453 260 l 1,1,-1
 566 260 l 1,2,-1
 566 181 l 1,3,-1
 453 181 l 1,4,-1
 453 -31 l 1,5,-1
 336 -31 l 1,6,-1
 336 181 l 1,7,-1
 25 181 l 1,8,-1
 25 262 l 1,9,-1
 355 677 l 1,10,-1
 453 677 l 1,0,-1
116 260 m 1,11,-1
 336 260 l 1,12,-1
 336 539 l 1,13,-1
 116 260 l 1,11,-1
EndSplineSet
EndChar

StartChar: five
Encoding: 53 53 11
Width: 581
GlyphClass: 2
Flags: W
LayerCount: 2
Fore
SplineSet
489 671 m 1,0,-1
 489 567 l 1,1,-1
 177 567 l 1,2,-1
 177 398 l 1,3,4
 242 420 242 420 298 420 c 0,5,6
 350 420 350 420 392 406 c 128,-1,7
 434 392 434 392 463.5 366 c 128,-1,8
 493 340 493 340 509 304 c 128,-1,9
 525 268 525 268 525 224 c 0,10,11
 525 174 525 174 504.5 131 c 128,-1,12
 484 88 484 88 447 57 c 128,-1,13
 410 26 410 26 357.5 8.5 c 128,-1,14
 305 -9 305 -9 241 -9 c 0,15,16
 198 -9 198 -9 163.5 0.5 c 128,-1,17
 129 10 129 10 105 26.5 c 128,-1,18
 81 43 81 43 68 64.5 c 128,-1,19
 55 86 55 86 55 111 c 0,20,21
 55 137 55 137 75.5 155.5 c 128,-1,22
 96 174 96 174 130 174 c 0,23,24
 138 174 138 174 147 172 c 128,-1,25
 156 170 156 170 167 167 c 1,26,-1
 201 54 l 1,27,28
 213 51 213 51 224.5 50 c 128,-1,29
 236 49 236 49 248 49 c 0,30,31
 278 49 278 49 304.5 60 c 128,-1,32
 331 71 331 71 350.5 90.5 c 128,-1,33
 370 110 370 110 381 136.5 c 128,-1,34
 392 163 392 163 392 194 c 0,35,36
 392 261 392 261 346 300 c 128,-1,37
 300 339 300 339 217 339 c 0,38,39
 157 339 157 339 96 325 c 1,40,-1
 96 671 l 1,41,-1
 489 671 l 1,0,-1
EndSplineSet
EndChar

StartChar: six
Encoding: 54 54 12
Width: 581
GlyphClass: 2
Flags: W
LayerCount: 2
Fore
SplineSet
469 640 m 1,0,-1
 427 644 l 1,1,2
 327 636 327 636 266.5 574.5 c 128,-1,3
 206 513 206 513 187 401 c 1,4,5
 264 452 264 452 346 452 c 0,6,7
 390 452 390 452 428 435.5 c 128,-1,8
 466 419 466 419 493.5 390 c 128,-1,9
 521 361 521 361 537 321 c 128,-1,10
 553 281 553 281 553 233 c 0,11,12
 553 179 553 179 534 133.5 c 128,-1,13
 515 88 515 88 481 55.5 c 128,-1,14
 447 23 447 23 400 5 c 128,-1,15
 353 -13 353 -13 297 -13 c 0,16,17
 240 -13 240 -13 193.5 7.5 c 128,-1,18
 147 28 147 28 114.5 67 c 128,-1,19
 82 106 82 106 64.5 162 c 128,-1,20
 47 218 47 218 47 289 c 0,21,22
 47 385 47 385 76.5 463 c 128,-1,23
 106 541 106 541 161 596.5 c 128,-1,24
 216 652 216 652 294 683 c 128,-1,25
 372 714 372 714 469 714 c 1,26,-1
 469 640 l 1,0,-1
181 347 m 1,27,28
 180 324 180 324 179.5 309 c 128,-1,29
 179 294 179 294 179 287 c 0,30,31
 179 168 179 168 213.5 108.5 c 128,-1,32
 248 49 248 49 309 49 c 0,33,34
 358 49 358 49 389.5 92.5 c 128,-1,35
 421 136 421 136 421 214 c 0,36,37
 421 288 421 288 385 330 c 128,-1,38
 349 372 349 372 288 372 c 0,39,40
 230 372 230 372 181 347 c 1,27,28
EndSplineSet
EndChar

StartChar: seven
Encoding: 55 55 13
Width: 581
GlyphClass: 2
Flags: W
LayerCount: 2
Fore
SplineSet
555 671 m 1,0,-1
 555 606 l 1,1,-1
 231 -6 l 1,2,-1
 231 -34 l 1,3,-1
 124 -34 l 1,4,-1
 446 560 l 1,5,-1
 157 560 l 1,6,-1
 142 467 l 1,7,-1
 76 467 l 1,8,-1
 76 671 l 1,9,-1
 555 671 l 1,0,-1
EndSplineSet
EndChar

StartChar: eight
Encoding: 56 56 14
Width: 581
GlyphClass: 2
Flags: W
LayerCount: 2
Fore
SplineSet
347 379 m 1,0,1
 399 428 399 428 399 502 c 0,2,3
 399 557 399 557 370 591 c 128,-1,4
 341 625 341 625 293 625 c 0,5,6
 251 625 251 625 224 596.5 c 128,-1,7
 197 568 197 568 197 524 c 0,8,9
 197 476 197 476 234 442.5 c 128,-1,10
 271 409 271 409 347 379 c 1,0,1
394 356 m 1,11,12
 468 330 468 330 503.5 287.5 c 128,-1,13
 539 245 539 245 539 182 c 0,14,15
 539 139 539 139 522 103 c 128,-1,16
 505 67 505 67 472 40.5 c 128,-1,17
 439 14 439 14 391.5 -0.5 c 128,-1,18
 344 -15 344 -15 284 -15 c 0,19,20
 228 -15 228 -15 183.5 0 c 128,-1,21
 139 15 139 15 107.5 41 c 128,-1,22
 76 67 76 67 59 102.5 c 128,-1,23
 42 138 42 138 42 179 c 0,24,25
 42 238 42 238 76.5 278 c 128,-1,26
 111 318 111 318 177 338 c 1,27,28
 71 386 71 386 71 494 c 0,29,30
 71 537 71 537 87.5 572 c 128,-1,31
 104 607 104 607 134 632 c 128,-1,32
 164 657 164 657 207 671 c 128,-1,33
 250 685 250 685 303 685 c 0,34,35
 351 685 351 685 390 671.5 c 128,-1,36
 429 658 429 658 456 635 c 128,-1,37
 483 612 483 612 497.5 580 c 128,-1,38
 512 548 512 548 512 511 c 0,39,40
 512 460 512 460 482.5 421 c 128,-1,41
 453 382 453 382 394 356 c 1,11,12
222 314 m 1,42,43
 190 285 190 285 175 256 c 128,-1,44
 160 227 160 227 160 190 c 0,45,46
 160 158 160 158 170 132 c 128,-1,47
 180 106 180 106 198 86.5 c 128,-1,48
 216 67 216 67 240 56.5 c 128,-1,49
 264 46 264 46 293 46 c 0,50,51
 347 46 347 46 379.5 75.5 c 128,-1,52
 412 105 412 105 412 152 c 0,53,54
 412 180 412 180 400.5 201.5 c 128,-1,55
 389 223 389 223 365 242 c 128,-1,56
 341 261 341 261 305.5 278 c 128,-1,57
 270 295 270 295 222 314 c 1,42,43
EndSplineSet
EndChar

StartChar: nine
Encoding: 57 57 15
Width: 581
GlyphClass: 2
Flags: W
LayerCount: 2
Fore
SplineSet
405 321 m 1,0,1
 410 344 410 344 412.5 368.5 c 128,-1,2
 415 393 415 393 415 419 c 0,3,4
 415 519 415 519 381 571.5 c 128,-1,5
 347 624 347 624 290 624 c 0,6,7
 241 624 241 624 208 580.5 c 128,-1,8
 175 537 175 537 175 460 c 0,9,10
 175 382 175 382 212.5 340.5 c 128,-1,11
 250 299 250 299 318 299 c 0,12,13
 360 299 360 299 405 321 c 1,0,1
102 13 m 1,14,-1
 147 21 l 1,15,16
 243 65 243 65 303 124 c 128,-1,17
 363 183 363 183 391 262 c 1,18,19
 355 243 355 243 319 233 c 128,-1,20
 283 223 283 223 246 223 c 0,21,22
 202 223 202 223 164.5 238.5 c 128,-1,23
 127 254 127 254 100 282.5 c 128,-1,24
 73 311 73 311 57.5 351 c 128,-1,25
 42 391 42 391 42 439 c 0,26,27
 42 493 42 493 60.5 538 c 128,-1,28
 79 583 79 583 113.5 615.5 c 128,-1,29
 148 648 148 648 196 665.5 c 128,-1,30
 244 683 244 683 304 683 c 0,31,32
 359 683 359 683 404 664.5 c 128,-1,33
 449 646 449 646 480.5 611.5 c 128,-1,34
 512 577 512 577 529 528.5 c 128,-1,35
 546 480 546 480 546 419 c 0,36,37
 546 342 546 342 518.5 270.5 c 128,-1,38
 491 199 491 199 438 137.5 c 128,-1,39
 385 76 385 76 307 27.5 c 128,-1,40
 229 -21 229 -21 129 -53 c 1,41,-1
 102 13 l 1,14,-1
EndSplineSet
EndChar

StartChar: A
Encoding: 65 65 16
Width: 651
GlyphClass: 2
Flags: W
LayerCount: 2
Fore
SplineSet
380 678 m 1,0,-1
 610 59 l 1,1,-1
 669 49 l 1,2,-1
 669 0 l 1,3,-1
 399 0 l 1,4,-1
 399 49 l 1,5,-1
 462 55 l 1,6,-1
 469 68 l 1,7,-1
 409 238 l 1,8,-1
 191 238 l 1,9,-1
 131 69 l 1,10,-1
 141 56 l 1,11,-1
 204 49 l 1,12,-1
 204 0 l 1,13,-1
 -11 0 l 1,14,-1
 -11 49 l 1,15,-1
 49 58 l 1,16,-1
 275 678 l 1,17,-1
 380 678 l 1,0,-1
210 294 m 1,18,-1
 386 294 l 1,19,-1
 297 541 l 1,20,-1
 210 294 l 1,18,-1
EndSplineSet
EndChar

StartChar: B
Encoding: 66 66 17
Width: 628
GlyphClass: 2
Flags: W
LayerCount: 2
Fore
SplineSet
329 671 m 2,0,1
 551 671 551 671 551 514 c 0,2,3
 551 395 551 395 408 357 c 1,4,5
 496 355 496 355 543 312.5 c 128,-1,6
 590 270 590 270 590 196 c 0,7,8
 590 101 590 101 526 50.5 c 128,-1,9
 462 0 462 0 338 0 c 2,10,-1
 29 0 l 1,11,-1
 29 49 l 1,12,-1
 88 54 l 1,13,-1
 104 70 l 1,14,-1
 104 603 l 1,15,-1
 88 617 l 1,16,-1
 29 622 l 1,17,-1
 29 671 l 1,18,-1
 329 671 l 2,0,1
234 373 m 1,19,20
 241 372 241 372 247.5 372 c 128,-1,21
 254 372 254 372 261 372 c 0,22,23
 339 372 339 372 376 403 c 128,-1,24
 413 434 413 434 413 502 c 0,25,26
 413 617 413 617 274 617 c 0,27,28
 264 617 264 617 254.5 616.5 c 128,-1,29
 245 616 245 616 234 615 c 1,30,-1
 234 373 l 1,19,20
234 57 m 1,31,32
 247 56 247 56 259 55.5 c 128,-1,33
 271 55 271 55 282 55 c 0,34,35
 370 55 370 55 410 86.5 c 128,-1,36
 450 118 450 118 450 190 c 0,37,38
 450 317 450 317 300 317 c 0,39,40
 288 317 288 317 271.5 317 c 128,-1,41
 255 317 255 317 234 315 c 1,42,-1
 234 57 l 1,31,32
EndSplineSet
EndChar

StartChar: C
Encoding: 67 67 18
Width: 638
GlyphClass: 2
Flags: W
LayerCount: 2
Fore
SplineSet
601 24 m 1,0,1
 500 -12 500 -12 391 -12 c 0,2,3
 337 -12 337 -12 290.5 -0.5 c 128,-1,4
 244 11 244 11 207 33 c 0,5,6
 129 80 129 80 85 159 c 128,-1,7
 41 238 41 238 41 335 c 0,8,9
 41 412 41 412 67.5 477 c 128,-1,10
 94 542 94 542 145 591 c 0,11,12
 240 683 240 683 397 683 c 0,13,14
 498 683 498 683 601 646 c 1,15,-1
 601 479 l 1,16,-1
 527 479 l 1,17,-1
 508 586 l 1,18,-1
 494 603 l 1,19,20
 453 618 453 618 415 618 c 0,21,22
 364 618 364 618 322 599 c 128,-1,23
 280 580 280 580 250 543.5 c 128,-1,24
 220 507 220 507 204 454.5 c 128,-1,25
 188 402 188 402 188 336 c 0,26,27
 188 269 188 269 204.5 216 c 128,-1,28
 221 163 221 163 252 126.5 c 128,-1,29
 283 90 283 90 327.5 70.5 c 128,-1,30
 372 51 372 51 428 51 c 0,31,32
 453 51 453 51 489 60 c 1,33,-1
 504 75 l 1,34,-1
 529 196 l 1,35,-1
 601 196 l 1,36,-1
 601 24 l 1,37,-1
 601 24 l 1,0,1
EndSplineSet
EndChar

StartChar: D
Encoding: 68 68 19
Width: 716
GlyphClass: 2
Flags: W
LayerCount: 2
Fore
SplineSet
321 671 m 2,0,1
 408 671 408 671 475 648 c 128,-1,2
 542 625 542 625 588 581.5 c 128,-1,3
 634 538 634 538 657.5 476 c 128,-1,4
 681 414 681 414 681 335 c 0,5,6
 681 157 681 157 558 63 c 0,7,8
 511 27 511 27 453.5 13.5 c 128,-1,9
 396 0 396 0 321 0 c 2,10,-1
 29 0 l 1,11,-1
 29 49 l 1,12,-1
 90 54 l 1,13,-1
 106 70 l 1,14,-1
 106 601 l 1,15,-1
 90 617 l 1,16,-1
 29 622 l 1,17,-1
 29 671 l 1,18,-1
 321 671 l 2,0,1
238 56 m 1,19,-1
 296 56 l 2,20,21
 532 56 532 56 532 336 c 0,22,23
 532 478 532 478 474 546.5 c 128,-1,24
 416 615 416 615 296 615 c 2,25,-1
 238 615 l 1,26,-1
 238 56 l 1,19,-1
EndSplineSet
EndChar

StartChar: E
Encoding: 69 69 20
Width: 596
GlyphClass: 2
Flags: W
LayerCount: 2
Fore
SplineSet
29 49 m 1,0,-1
 90 54 l 1,1,-1
 106 70 l 1,2,-1
 106 603 l 1,3,-1
 90 617 l 1,4,-1
 29 622 l 1,5,-1
 29 671 l 1,6,-1
 533 671 l 1,7,-1
 534 543 l 1,8,-1
 464 543 l 1,9,-1
 448 602 l 1,10,-1
 435 615 l 1,11,-1
 236 615 l 1,12,-1
 236 377 l 1,13,-1
 366 377 l 1,14,-1
 380 391 l 1,15,-1
 390 429 l 1,16,-1
 449 429 l 1,17,-1
 449 264 l 1,18,-1
 390 264 l 1,19,-1
 380 303 l 1,20,-1
 366 317 l 1,21,-1
 236 317 l 1,22,-1
 236 57 l 1,23,-1
 447 57 l 1,24,-1
 460 73 l 1,25,-1
 478 150 l 1,26,-1
 546 150 l 1,27,-1
 545 0 l 1,28,-1
 29 0 l 1,29,-1
 29 49 l 1,0,-1
EndSplineSet
EndChar

StartChar: F
Encoding: 70 70 21
Width: 552
GlyphClass: 2
Flags: W
LayerCount: 2
Fore
SplineSet
30 49 m 1,0,-1
 90 54 l 1,1,-1
 106 70 l 1,2,-1
 106 603 l 1,3,-1
 90 617 l 1,4,-1
 26 622 l 1,5,-1
 26 671 l 1,6,-1
 528 671 l 1,7,-1
 528 534 l 1,8,-1
 459 534 l 1,9,-1
 444 600 l 1,10,-1
 431 613 l 1,11,-1
 238 613 l 1,12,-1
 238 364 l 1,13,-1
 372 364 l 1,14,-1
 386 377 l 1,15,-1
 397 417 l 1,16,-1
 456 417 l 1,17,-1
 456 249 l 1,18,-1
 397 249 l 1,19,-1
 386 290 l 1,20,-1
 372 303 l 1,21,-1
 238 303 l 1,22,-1
 238 70 l 1,23,-1
 255 54 l 1,24,-1
 325 49 l 1,25,-1
 325 0 l 1,26,-1
 30 0 l 1,27,-1
 30 49 l 1,0,-1
EndSplineSet
EndChar

StartChar: G
Encoding: 71 71 22
Width: 710
GlyphClass: 2
Flags: W
LayerCount: 2
Fore
SplineSet
690 330 m 1,0,-1
 690 281 l 1,1,-1
 632 276 l 1,2,-1
 616 262 l 1,3,-1
 616 29 l 1,4,5
 499 -12 499 -12 392 -12 c 0,6,7
 313 -12 313 -12 248.5 13.5 c 128,-1,8
 184 39 184 39 137.5 85.5 c 128,-1,9
 91 132 91 132 65.5 197 c 128,-1,10
 40 262 40 262 40 340 c 0,11,12
 40 417 40 417 66 480 c 128,-1,13
 92 543 92 543 139.5 588 c 128,-1,14
 187 633 187 633 254.5 657.5 c 128,-1,15
 322 682 322 682 405 682 c 0,16,17
 505 682 505 682 616 649 c 1,18,-1
 616 479 l 1,19,-1
 543 479 l 1,20,-1
 524 585 l 1,21,-1
 509 603 l 1,22,23
 470 619 470 619 426 619 c 0,24,25
 370 619 370 619 325.5 600 c 128,-1,26
 281 581 281 581 249.5 545 c 128,-1,27
 218 509 218 509 201.5 457.5 c 128,-1,28
 185 406 185 406 185 340 c 0,29,30
 185 204 185 204 251 129.5 c 128,-1,31
 317 55 317 55 433 55 c 0,32,33
 449 55 449 55 488 58 c 1,34,-1
 488 262 l 1,35,-1
 472 276 l 1,36,-1
 398 281 l 1,37,-1
 398 330 l 1,38,-1
 690 330 l 1,0,-1
EndSplineSet
EndChar

StartChar: H
Encoding: 72 72 23
Width: 760
GlyphClass: 2
Flags: W
LayerCount: 2
Fore
SplineSet
313 671 m 1,0,-1
 313 622 l 1,1,-1
 253 617 l 1,2,-1
 237 601 l 1,3,-1
 237 382 l 1,4,-1
 526 382 l 1,5,-1
 526 601 l 1,6,-1
 511 617 l 1,7,-1
 451 622 l 1,8,-1
 451 671 l 1,9,-1
 733 671 l 1,10,-1
 733 622 l 1,11,-1
 675 617 l 1,12,-1
 659 601 l 1,13,-1
 659 70 l 1,14,-1
 675 54 l 1,15,-1
 733 49 l 1,16,-1
 733 0 l 1,17,-1
 451 0 l 1,18,-1
 451 49 l 1,19,-1
 511 54 l 1,20,-1
 526 70 l 1,21,-1
 526 322 l 1,22,-1
 237 322 l 1,23,-1
 237 70 l 1,24,-1
 253 54 l 1,25,-1
 313 49 l 1,26,-1
 313 0 l 1,27,-1
 30 0 l 1,28,-1
 30 49 l 1,29,-1
 88 54 l 1,30,-1
 104 70 l 1,31,-1
 104 601 l 1,32,-1
 88 617 l 1,33,-1
 30 622 l 1,34,-1
 30 671 l 1,35,-1
 313 671 l 1,0,-1
EndSplineSet
EndChar

StartChar: I
Encoding: 73 73 24
Width: 354
GlyphClass: 2
Flags: W
LayerCount: 2
Fore
SplineSet
30 49 m 1,0,-1
 96 54 l 1,1,-1
 112 70 l 1,2,-1
 112 603 l 1,3,-1
 96 617 l 1,4,-1
 30 622 l 1,5,-1
 30 671 l 1,6,-1
 329 671 l 1,7,-1
 329 622 l 1,8,-1
 262 617 l 1,9,-1
 246 603 l 1,10,-1
 246 70 l 1,11,-1
 262 54 l 1,12,-1
 329 49 l 1,13,-1
 329 0 l 1,14,-1
 30 0 l 1,15,-1
 30 49 l 1,0,-1
EndSplineSet
EndChar

StartChar: J
Encoding: 74 74 25
Width: 465
GlyphClass: 2
Flags: W
LayerCount: 2
Fore
SplineSet
240 617 m 1,0,-1
 170 622 l 1,1,-1
 170 671 l 1,2,-1
 464 671 l 1,3,-1
 464 622 l 1,4,-1
 403 617 l 1,5,-1
 387 603 l 1,6,-1
 387 262 l 2,7,8
 387 121 387 121 332.5 54.5 c 128,-1,9
 278 -12 278 -12 155 -12 c 0,10,11
 85 -12 85 -12 12 12 c 1,12,-1
 12 192 l 1,13,-1
 85 192 l 1,14,-1
 108 60 l 1,15,-1
 122 47 l 2,16,17
 126 47 126 47 130 46.5 c 128,-1,18
 134 46 134 46 138 46 c 0,19,20
 206 46 206 46 231 98.5 c 128,-1,21
 256 151 256 151 256 261 c 2,22,-1
 256 603 l 1,23,-1
 240 617 l 1,0,-1
EndSplineSet
EndChar

StartChar: K
Encoding: 75 75 26
Width: 650
GlyphClass: 2
Flags: W
LayerCount: 2
Fore
SplineSet
30 49 m 1,0,-1
 91 54 l 1,1,-1
 106 70 l 1,2,-1
 106 603 l 1,3,-1
 91 617 l 1,4,-1
 30 622 l 1,5,-1
 30 671 l 1,6,-1
 314 671 l 1,7,-1
 314 622 l 1,8,-1
 255 617 l 1,9,-1
 239 603 l 1,10,-1
 239 341 l 1,11,-1
 267 341 l 1,12,-1
 484 604 l 1,13,-1
 478 617 l 1,14,-1
 422 622 l 1,15,-1
 422 671 l 1,16,-1
 647 671 l 1,17,-1
 647 622 l 1,18,-1
 577 615 l 1,19,-1
 387 388 l 1,20,-1
 600 55 l 1,21,-1
 672 49 l 1,22,-1
 672 0 l 1,23,-1
 465 0 l 1,24,-1
 465 35 l 1,25,-1
 297 294 l 1,26,-1
 239 294 l 1,27,-1
 239 70 l 1,28,-1
 255 54 l 1,29,-1
 314 49 l 1,30,-1
 314 0 l 1,31,-1
 30 0 l 1,32,-1
 30 49 l 1,0,-1
EndSplineSet
EndChar

StartChar: L
Encoding: 76 76 27
Width: 543
GlyphClass: 2
Flags: W
LayerCount: 2
Fore
SplineSet
27 49 m 1,0,-1
 88 54 l 1,1,-1
 105 70 l 1,2,-1
 105 603 l 1,3,-1
 91 617 l 1,4,-1
 27 622 l 1,5,-1
 27 671 l 1,6,-1
 315 671 l 1,7,-1
 315 622 l 1,8,-1
 254 617 l 1,9,-1
 238 603 l 1,10,-1
 238 58 l 1,11,-1
 430 58 l 1,12,-1
 443 74 l 1,13,-1
 458 196 l 1,14,-1
 532 196 l 1,15,-1
 532 0 l 1,16,-1
 27 0 l 1,17,-1
 27 49 l 1,0,-1
EndSplineSet
EndChar

StartChar: M
Encoding: 77 77 28
Width: 883
GlyphClass: 2
Flags: W
LayerCount: 2
Fore
SplineSet
25 49 m 1,0,-1
 89 56 l 1,1,-1
 103 74 l 1,2,-1
 103 604 l 1,3,-1
 91 617 l 1,4,-1
 25 623 l 1,5,-1
 25 671 l 1,6,-1
 287 671 l 1,7,-1
 287 643 l 1,8,-1
 443 184 l 1,9,-1
 598 642 l 1,10,-1
 598 671 l 1,11,-1
 863 671 l 1,12,-1
 863 623 l 1,13,-1
 795 617 l 1,14,-1
 784 603 l 1,15,-1
 784 70 l 1,16,-1
 795 54 l 1,17,-1
 863 49 l 1,18,-1
 863 0 l 1,19,-1
 586 0 l 1,20,-1
 586 49 l 1,21,-1
 648 54 l 1,22,-1
 658 70 l 1,23,-1
 658 607 l 1,24,-1
 450 0 l 1,25,-1
 378 0 l 1,26,-1
 175 602 l 1,27,-1
 175 74 l 1,28,-1
 190 56 l 1,29,-1
 252 49 l 1,30,-1
 252 0 l 1,31,-1
 25 0 l 1,32,-1
 25 49 l 1,0,-1
EndSplineSet
EndChar

StartChar: N
Encoding: 78 78 29
Width: 727
GlyphClass: 2
Flags: W
LayerCount: 2
Fore
SplineSet
26 48 m 1,0,-1
 85 56 l 1,1,-1
 103 74 l 1,2,-1
 103 603 l 1,3,-1
 89 617 l 1,4,-1
 25 622 l 1,5,-1
 25 671 l 1,6,-1
 255 671 l 1,7,-1
 255 644 l 1,8,-1
 561 169 l 1,9,-1
 561 597 l 1,10,-1
 543 616 l 1,11,-1
 482 624 l 1,12,-1
 482 671 l 1,13,-1
 710 671 l 1,14,-1
 710 624 l 1,15,-1
 651 616 l 1,16,-1
 634 597 l 1,17,-1
 634 0 l 1,18,-1
 522 0 l 1,19,-1
 176 537 l 1,20,-1
 176 74 l 1,21,-1
 192 56 l 1,22,-1
 254 48 l 1,23,-1
 254 0 l 1,24,-1
 26 0 l 1,25,-1
 26 48 l 1,0,-1
EndSplineSet
EndChar

StartChar: O
Encoding: 79 79 30
Width: 752
GlyphClass: 2
Flags: W
LayerCount: 2
Fore
SplineSet
41 339 m 0,0,1
 41 504 41 504 144 599 c 0,2,3
 238 686 238 686 378 686 c 0,4,5
 506 686 506 686 598 608 c 0,6,7
 656 558 656 558 686.5 488 c 128,-1,8
 717 418 717 418 717 333 c 0,9,10
 717 253 717 253 690 187 c 128,-1,11
 663 121 663 121 610 72 c 0,12,13
 564 29 564 29 506 6.5 c 128,-1,14
 448 -16 448 -16 385 -16 c 0,15,16
 307 -16 307 -16 243.5 9.5 c 128,-1,17
 180 35 180 35 135 81.5 c 128,-1,18
 90 128 90 128 65.5 193.5 c 128,-1,19
 41 259 41 259 41 339 c 0,0,1
380 622 m 0,20,21
 338 622 338 622 303.5 602.5 c 128,-1,22
 269 583 269 583 243.5 546.5 c 128,-1,23
 218 510 218 510 204 457 c 128,-1,24
 190 404 190 404 190 337 c 0,25,26
 190 268 190 268 204.5 213.5 c 128,-1,27
 219 159 219 159 244 121.5 c 128,-1,28
 269 84 269 84 303.5 64.5 c 128,-1,29
 338 45 338 45 378 45 c 0,30,31
 419 45 419 45 454 64.5 c 128,-1,32
 489 84 489 84 514 121 c 128,-1,33
 539 158 539 158 553 211 c 128,-1,34
 567 264 567 264 567 330 c 0,35,36
 567 399 567 399 553 453.5 c 128,-1,37
 539 508 539 508 514.5 545.5 c 128,-1,38
 490 583 490 583 455.5 602.5 c 128,-1,39
 421 622 421 622 380 622 c 0,20,21
EndSplineSet
EndChar

StartChar: P
Encoding: 80 80 31
Width: 587
GlyphClass: 2
Flags: W
LayerCount: 2
Fore
SplineSet
29 49 m 1,0,-1
 88 54 l 1,1,-1
 106 70 l 1,2,-1
 106 603 l 1,3,-1
 91 617 l 1,4,-1
 25 622 l 1,5,-1
 25 671 l 1,6,-1
 295 671 l 2,7,8
 434 671 434 671 501 624 c 128,-1,9
 568 577 568 577 568 469 c 0,10,11
 568 365 568 365 500.5 306 c 128,-1,12
 433 247 433 247 306 247 c 0,13,14
 283 247 283 247 238 250 c 1,15,-1
 238 70 l 1,16,-1
 253 54 l 1,17,-1
 324 49 l 1,18,-1
 324 0 l 1,19,-1
 29 0 l 1,20,-1
 29 49 l 1,0,-1
238 307 m 1,21,22
 248 306 248 306 257 305.5 c 128,-1,23
 266 305 266 305 274 305 c 0,24,25
 430 305 430 305 430 465 c 0,26,27
 430 537 430 537 394.5 575 c 128,-1,28
 359 613 359 613 290 613 c 2,29,-1
 238 613 l 1,30,-1
 238 307 l 1,21,22
EndSplineSet
EndChar

StartChar: Q
Encoding: 81 81 32
Width: 752
GlyphClass: 2
Flags: W
LayerCount: 2
Fore
SplineSet
454 -2 m 1,0,1
 456 -62 456 -62 489 -90 c 128,-1,2
 522 -118 522 -118 589 -118 c 0,3,4
 631 -118 631 -118 681 -106 c 1,5,-1
 681 -157 l 1,6,7
 585 -178 585 -178 516 -178 c 0,8,9
 412 -178 412 -178 362.5 -137.5 c 128,-1,10
 313 -97 313 -97 313 -9 c 2,11,-1
 313 -6 l 1,12,13
 250 4 250 4 199.5 33 c 128,-1,14
 149 62 149 62 113.5 106.5 c 128,-1,15
 78 151 78 151 58.5 209 c 128,-1,16
 39 267 39 267 39 336 c 0,17,18
 39 451 39 451 97 543 c 0,19,20
 140 609 140 609 213 648 c 128,-1,21
 286 687 286 687 374 687 c 0,22,23
 509 687 509 687 598 610 c 0,24,25
 657 559 657 559 688.5 488.5 c 128,-1,26
 720 418 720 418 720 332 c 0,27,28
 720 267 720 267 701 210.5 c 128,-1,29
 682 154 682 154 647.5 110.5 c 128,-1,30
 613 67 613 67 563.5 37.5 c 128,-1,31
 514 8 514 8 454 -2 c 1,0,1
190 339 m 0,32,33
 190 271 190 271 204.5 217.5 c 128,-1,34
 219 164 219 164 245 126.5 c 128,-1,35
 271 89 271 89 306.5 69.5 c 128,-1,36
 342 50 342 50 383 50 c 0,37,38
 423 50 423 50 457 69.5 c 128,-1,39
 491 89 491 89 515.5 125.5 c 128,-1,40
 540 162 540 162 554 215 c 128,-1,41
 568 268 568 268 568 335 c 256,42,43
 568 402 568 402 553.5 455.5 c 128,-1,44
 539 509 539 509 513.5 546 c 128,-1,45
 488 583 488 583 453 602.5 c 128,-1,46
 418 622 418 622 376 622 c 0,47,48
 335 622 335 622 301 603 c 128,-1,49
 267 584 267 584 242.5 547.5 c 128,-1,50
 218 511 218 511 204 458.5 c 128,-1,51
 190 406 190 406 190 339 c 0,32,33
EndSplineSet
EndChar

StartChar: R
Encoding: 82 82 33
Width: 671
GlyphClass: 2
Flags: W
LayerCount: 2
Fore
SplineSet
335 671 m 2,0,1
 452 671 452 671 511 627.5 c 128,-1,2
 570 584 570 584 570 500 c 0,3,4
 570 361 570 361 398 329 c 1,5,6
 434 321 434 321 460 306 c 128,-1,7
 486 291 486 291 503 267 c 0,8,9
 526 234 526 234 536.5 195.5 c 128,-1,10
 547 157 547 157 561 119 c 0,11,12
 577 78 577 78 603 63.5 c 128,-1,13
 629 49 629 49 679 49 c 2,14,-1
 692 49 l 1,15,-1
 692 1 l 1,16,17
 666 -3 666 -3 640.5 -5 c 128,-1,18
 615 -7 615 -7 592 -7 c 0,19,20
 560 -7 560 -7 533 1.5 c 128,-1,21
 506 10 506 10 488 24 c 0,22,23
 468 39 468 39 456 55 c 128,-1,24
 444 71 444 71 436 87.5 c 128,-1,25
 428 104 428 104 422.5 121.5 c 128,-1,26
 417 139 417 139 411 157 c 0,27,28
 399 193 399 193 387 219 c 128,-1,29
 375 245 375 245 358 262 c 128,-1,30
 341 279 341 279 316 287 c 128,-1,31
 291 295 291 295 253 295 c 2,32,-1
 236 295 l 1,33,-1
 236 70 l 1,34,-1
 252 54 l 1,35,-1
 313 49 l 1,36,-1
 313 0 l 1,37,-1
 31 0 l 1,38,-1
 31 49 l 1,39,-1
 90 54 l 1,40,-1
 106 70 l 1,41,-1
 106 603 l 1,42,-1
 90 617 l 1,43,-1
 31 622 l 1,44,-1
 31 671 l 1,45,-1
 335 671 l 2,0,1
236 353 m 1,46,47
 246 352 246 352 255 352 c 128,-1,48
 264 352 264 352 272 352 c 0,49,50
 353 352 353 352 391.5 384.5 c 128,-1,51
 430 417 430 417 430 486 c 0,52,53
 430 548 430 548 392.5 581 c 128,-1,54
 355 614 355 614 282 614 c 2,55,-1
 236 614 l 1,56,-1
 236 353 l 1,46,47
EndSplineSet
EndChar

StartChar: S
Encoding: 83 83 34
Width: 568
GlyphClass: 2
Flags: W
LayerCount: 2
Fore
SplineSet
59 203 m 1,0,-1
 135 203 l 1,1,-1
 151 83 l 1,2,-1
 164 68 l 1,3,4
 208 54 208 54 252 54 c 0,5,6
 313 54 313 54 347 80.5 c 128,-1,7
 381 107 381 107 381 149 c 0,8,9
 381 190 381 190 354.5 219 c 128,-1,10
 328 248 328 248 274 275 c 0,11,12
 244 290 244 290 210 305.5 c 128,-1,13
 176 321 176 321 143 349 c 0,14,15
 108 378 108 378 90.5 413.5 c 128,-1,16
 73 449 73 449 73 486 c 0,17,18
 73 528 73 528 90 564 c 128,-1,19
 107 600 107 600 137.5 626.5 c 128,-1,20
 168 653 168 653 211.5 668 c 128,-1,21
 255 683 255 683 309 683 c 0,22,23
 400 683 400 683 497 649 c 1,24,-1
 497 487 l 1,25,-1
 425 487 l 1,26,-1
 408 591 l 1,27,-1
 394 605 l 1,28,29
 380 612 380 612 362.5 615.5 c 128,-1,30
 345 619 345 619 321 619 c 0,31,32
 266 619 266 619 234.5 592.5 c 128,-1,33
 203 566 203 566 203 524 c 0,34,35
 203 489 203 489 223.5 464.5 c 128,-1,36
 244 440 244 440 284 416 c 0,37,38
 307 402 307 402 344.5 387.5 c 128,-1,39
 382 373 382 373 427 344 c 0,40,41
 471 316 471 316 494 277.5 c 128,-1,42
 517 239 517 239 517 194 c 256,43,44
 517 149 517 149 498.5 111.5 c 128,-1,45
 480 74 480 74 446 47 c 128,-1,46
 412 20 412 20 362.5 4.5 c 128,-1,47
 313 -11 313 -11 252 -11 c 0,48,49
 204 -11 204 -11 155 -3 c 128,-1,50
 106 5 106 5 59 22 c 1,51,-1
 59 203 l 1,0,-1
EndSplineSet
EndChar

StartChar: T
Encoding: 84 84 35
Width: 603
GlyphClass: 2
Flags: W
LayerCount: 2
Fore
SplineSet
593 671 m 1,0,-1
 593 494 l 1,1,-1
 524 494 l 1,2,-1
 507 601 l 1,3,-1
 492 614 l 1,4,-1
 372 614 l 1,5,-1
 372 70 l 1,6,-1
 389 54 l 1,7,-1
 454 49 l 1,8,-1
 454 0 l 1,9,-1
 155 0 l 1,10,-1
 155 49 l 1,11,-1
 220 54 l 1,12,-1
 237 70 l 1,13,-1
 237 614 l 1,14,-1
 117 614 l 1,15,-1
 101 601 l 1,16,-1
 85 494 l 1,17,-1
 16 494 l 1,18,-1
 16 671 l 1,19,-1
 593 671 l 1,0,-1
EndSplineSet
EndChar

StartChar: U
Encoding: 85 85 36
Width: 705
GlyphClass: 2
Flags: W
LayerCount: 2
Fore
SplineSet
307 671 m 1,0,-1
 307 622 l 1,1,-1
 245 617 l 1,2,-1
 231 603 l 1,3,-1
 231 253 l 2,4,5
 231 156 231 156 267.5 111.5 c 128,-1,6
 304 67 304 67 394 67 c 0,7,8
 477 67 477 67 511.5 114.5 c 128,-1,9
 546 162 546 162 546 262 c 2,10,-1
 546 599 l 1,11,-1
 531 616 l 1,12,-1
 467 622 l 1,13,-1
 467 671 l 1,14,-1
 694 671 l 1,15,-1
 694 622 l 1,16,-1
 633 616 l 1,17,-1
 619 599 l 1,18,-1
 619 252 l 2,19,20
 619 115 619 115 557.5 51.5 c 128,-1,21
 496 -12 496 -12 355 -12 c 0,22,23
 280 -12 280 -12 226 9.5 c 128,-1,24
 172 31 172 31 141 70 c 0,25,26
 112 108 112 108 104.5 153.5 c 128,-1,27
 97 199 97 199 97 257 c 2,28,-1
 97 603 l 1,29,-1
 83 617 l 1,30,-1
 20 622 l 1,31,-1
 20 671 l 1,32,-1
 307 671 l 1,0,-1
EndSplineSet
EndChar

StartChar: V
Encoding: 86 86 37
Width: 635
GlyphClass: 2
Flags: W
LayerCount: 2
Fore
SplineSet
254 671 m 1,0,-1
 254 622 l 1,1,-1
 196 617 l 1,2,-1
 185 602 l 1,3,-1
 351 146 l 1,4,-1
 512 602 l 1,5,-1
 501 617 l 1,6,-1
 441 622 l 1,7,-1
 441 671 l 1,8,-1
 660 671 l 1,9,-1
 660 622 l 1,10,-1
 595 609 l 1,11,-1
 373 -2 l 1,12,-1
 272 -2 l 1,13,-1
 45 610 l 1,14,-1
 -21 622 l 1,15,-1
 -21 671 l 1,16,-1
 254 671 l 1,0,-1
EndSplineSet
EndChar

StartChar: W
Encoding: 87 87 38
Width: 946
GlyphClass: 2
Flags: W
LayerCount: 2
Fore
SplineSet
65 608 m 1,0,-1
 2 622 l 1,1,-1
 2 671 l 1,2,-1
 264 671 l 1,3,-1
 264 623 l 1,4,-1
 202 616 l 1,5,-1
 194 602 l 1,6,-1
 306 187 l 1,7,-1
 450 671 l 1,8,-1
 551 671 l 1,9,-1
 699 176 l 1,10,-1
 804 596 l 1,11,-1
 792 610 l 1,12,-1
 726 622 l 1,13,-1
 726 671 l 1,14,-1
 944 671 l 1,15,-1
 944 622 l 1,16,-1
 881 608 l 1,17,-1
 728 0 l 1,18,-1
 631 0 l 1,19,-1
 476 512 l 1,20,-1
 324 0 l 1,21,-1
 227 0 l 1,22,-1
 65 608 l 1,0,-1
EndSplineSet
EndChar

StartChar: X
Encoding: 88 88 39
Width: 637
GlyphClass: 2
Flags: W
LayerCount: 2
Fore
SplineSet
297 671 m 1,0,-1
 297 623 l 1,1,-1
 237 618 l 1,2,-1
 229 605 l 1,3,-1
 343 419 l 1,4,-1
 473 602 l 1,5,-1
 464 616 l 1,6,-1
 409 623 l 1,7,-1
 409 671 l 1,8,-1
 633 671 l 1,9,-1
 633 623 l 1,10,-1
 571 615 l 1,11,-1
 385 363 l 1,12,-1
 577 61 l 1,13,-1
 644 48 l 1,14,-1
 644 0 l 1,15,-1
 354 0 l 1,16,-1
 354 48 l 1,17,-1
 417 56 l 1,18,-1
 424 69 l 1,19,-1
 302 269 l 1,20,-1
 160 71 l 1,21,-1
 166 54 l 1,22,-1
 231 48 l 1,23,-1
 231 0 l 1,24,-1
 0 0 l 1,25,-1
 0 48 l 1,26,-1
 64 58 l 1,27,-1
 259 325 l 1,28,-1
 77 613 l 1,29,-1
 14 623 l 1,30,-1
 14 671 l 1,31,-1
 297 671 l 1,0,-1
EndSplineSet
EndChar

StartChar: Y
Encoding: 89 89 40
Width: 610
GlyphClass: 2
Flags: W
LayerCount: 2
Fore
SplineSet
262 671 m 1,0,-1
 262 622 l 1,1,-1
 206 617 l 1,2,-1
 197 605 l 1,3,-1
 334 351 l 1,4,-1
 477 596 l 1,5,-1
 469 612 l 1,6,-1
 409 623 l 1,7,-1
 409 671 l 1,8,-1
 627 671 l 1,9,-1
 627 622 l 1,10,-1
 568 611 l 1,11,-1
 378 288 l 1,12,-1
 378 69 l 1,13,-1
 394 55 l 1,14,-1
 462 50 l 1,15,-1
 462 0 l 1,16,-1
 162 0 l 1,17,-1
 162 50 l 1,18,-1
 229 55 l 1,19,-1
 245 69 l 1,20,-1
 245 264 l 1,21,-1
 53 612 l 1,22,-1
 -11 622 l 1,23,-1
 -11 671 l 1,24,-1
 262 671 l 1,0,-1
EndSplineSet
EndChar

StartChar: Z
Encoding: 90 90 41
Width: 592
GlyphClass: 2
Flags: W
LayerCount: 2
Fore
SplineSet
544 671 m 1,0,-1
 544 616 l 1,1,-1
 194 59 l 1,2,-1
 450 59 l 1,3,-1
 460 73 l 1,4,-1
 478 194 l 1,5,-1
 550 194 l 1,6,-1
 550 0 l 1,7,-1
 44 0 l 1,8,-1
 44 55 l 1,9,-1
 394 613 l 1,10,-1
 168 613 l 1,11,-1
 149 601 l 1,12,-1
 133 494 l 1,13,-1
 62 494 l 1,14,-1
 62 671 l 1,15,-1
 544 671 l 1,0,-1
EndSplineSet
EndChar

StartChar: a
Encoding: 97 97 42
Width: 544
GlyphClass: 2
Flags: W
LayerCount: 2
Fore
SplineSet
343 57 m 1,0,1
 295 25 295 25 253.5 8 c 128,-1,2
 212 -9 212 -9 171 -9 c 0,3,4
 142 -9 142 -9 118 0.5 c 128,-1,5
 94 10 94 10 76.5 27.5 c 128,-1,6
 59 45 59 45 49.5 68.5 c 128,-1,7
 40 92 40 92 40 121 c 0,8,9
 40 164 40 164 58 192.5 c 128,-1,10
 76 221 76 221 113.5 242 c 128,-1,11
 151 263 151 263 208.5 278.5 c 128,-1,12
 266 294 266 294 344 312 c 1,13,-1
 344 342 l 2,14,15
 344 396 344 396 321.5 421 c 128,-1,16
 299 446 299 446 249 446 c 0,17,18
 228 446 228 446 201 440 c 1,19,-1
 201 346 l 1,20,-1
 109 346 l 2,21,22
 86 346 86 346 74.5 354.5 c 128,-1,23
 63 363 63 363 63 383 c 0,24,25
 63 404 63 404 78.5 425 c 128,-1,26
 94 446 94 446 122.5 462.5 c 128,-1,27
 151 479 151 479 191 489 c 128,-1,28
 231 499 231 499 281 499 c 0,29,30
 333 499 333 499 369 489.5 c 128,-1,31
 405 480 405 480 427 458.5 c 128,-1,32
 449 437 449 437 458.5 403.5 c 128,-1,33
 468 370 468 370 468 322 c 2,34,-1
 468 63 l 1,35,-1
 481 49 l 1,36,-1
 534 44 l 1,37,-1
 534 0 l 1,38,-1
 356 0 l 1,39,-1
 343 57 l 1,0,1
343 261 m 1,40,41
 299 251 299 251 266.5 240.5 c 128,-1,42
 234 230 234 230 213 216.5 c 128,-1,43
 192 203 192 203 182 185.5 c 128,-1,44
 172 168 172 168 172 143 c 0,45,46
 172 108 172 108 191.5 88 c 128,-1,47
 211 68 211 68 246 68 c 0,48,49
 284 68 284 68 343 98 c 1,50,-1
 343 261 l 1,40,41
EndSplineSet
EndChar

StartChar: b
Encoding: 98 98 43
Width: 577
GlyphClass: 2
Flags: W
LayerCount: 2
Fore
SplineSet
205 739 m 1,0,-1
 205 453 l 1,1,2
 286 498 286 498 350 498 c 0,3,4
 393 498 393 498 429 481.5 c 128,-1,5
 465 465 465 465 491 435 c 128,-1,6
 517 405 517 405 532 363.5 c 128,-1,7
 547 322 547 322 547 271 c 0,8,9
 547 183 547 183 507 120.5 c 128,-1,10
 467 58 467 58 389 23 c 0,11,12
 333 -1 333 -1 219 -1 c 2,13,-1
 192 -1 l 1,14,-1
 81 1 l 1,15,-1
 81 653 l 1,16,-1
 9 653 l 1,17,-1
 9 692 l 1,18,-1
 157 739 l 1,19,-1
 205 739 l 1,0,-1
205 54 m 1,20,21
 213 53 213 53 221 53 c 128,-1,22
 229 53 229 53 237 53 c 0,23,24
 328 53 328 53 370.5 99.5 c 128,-1,25
 413 146 413 146 413 245 c 0,26,27
 413 331 413 331 375 375.5 c 128,-1,28
 337 420 337 420 268 420 c 0,29,30
 243 420 243 420 205 412 c 1,31,-1
 205 54 l 1,20,21
EndSplineSet
EndChar

StartChar: c
Encoding: 99 99 44
Width: 476
GlyphClass: 2
Flags: W
LayerCount: 2
Fore
SplineSet
464 45 m 1,0,1
 416 19 416 19 369.5 5.5 c 128,-1,2
 323 -8 323 -8 275 -8 c 0,3,4
 221 -8 221 -8 176.5 10 c 128,-1,5
 132 28 132 28 100.5 60.5 c 128,-1,6
 69 93 69 93 52 138.5 c 128,-1,7
 35 184 35 184 35 238 c 0,8,9
 35 295 35 295 54 342.5 c 128,-1,10
 73 390 73 390 107.5 424.5 c 128,-1,11
 142 459 142 459 189.5 478 c 128,-1,12
 237 497 237 497 293 497 c 0,13,14
 371 497 371 497 414.5 465.5 c 128,-1,15
 458 434 458 434 458 388 c 0,16,17
 458 359 458 359 438 339.5 c 128,-1,18
 418 320 418 320 386 320 c 0,19,20
 353 320 353 320 327 339 c 1,21,-1
 327 445 l 1,22,23
 312 448 312 448 302 448 c 0,24,25
 276 448 276 448 252 435 c 128,-1,26
 228 422 228 422 210 398 c 128,-1,27
 192 374 192 374 181.5 339.5 c 128,-1,28
 171 305 171 305 171 262 c 0,29,30
 171 171 171 171 213 121 c 128,-1,31
 255 71 255 71 325 71 c 0,32,33
 390 71 390 71 464 116 c 1,34,-1
 464 45 l 1,35,-1
 464 45 l 1,0,1
EndSplineSet
EndChar

StartChar: d
Encoding: 100 100 45
Width: 596
GlyphClass: 2
Flags: W
LayerCount: 2
Fore
SplineSet
316 652 m 1,0,-1
 316 692 l 1,1,-1
 465 739 l 1,2,-1
 511 739 l 1,3,-1
 511 64 l 1,4,-1
 525 48 l 1,5,-1
 576 44 l 1,6,-1
 576 0 l 1,7,-1
 389 0 l 1,8,-1
 389 56 l 1,9,10
 346 24 346 24 307.5 7.5 c 128,-1,11
 269 -9 269 -9 231 -9 c 0,12,13
 189 -9 189 -9 153.5 8.5 c 128,-1,14
 118 26 118 26 92 57.5 c 128,-1,15
 66 89 66 89 51.5 133.5 c 128,-1,16
 37 178 37 178 37 232 c 0,17,18
 37 292 37 292 56 341.5 c 128,-1,19
 75 391 75 391 109 426.5 c 128,-1,20
 143 462 143 462 190.5 481 c 128,-1,21
 238 500 238 500 295 500 c 0,22,23
 315 500 315 500 338.5 497.5 c 128,-1,24
 362 495 362 495 389 490 c 1,25,-1
 389 652 l 1,26,-1
 316 652 l 1,0,-1
389 429 m 1,27,28
 345 444 345 444 315 444 c 0,29,30
 251 444 251 444 211 393.5 c 128,-1,31
 171 343 171 343 171 253 c 0,32,33
 171 168 171 168 206.5 122 c 128,-1,34
 242 76 242 76 305 76 c 0,35,36
 323 76 323 76 344 81 c 128,-1,37
 365 86 365 86 389 95 c 1,38,-1
 389 429 l 1,27,28
EndSplineSet
EndChar

StartChar: e
Encoding: 101 101 46
Width: 524
GlyphClass: 2
Flags: W
LayerCount: 2
Fore
SplineSet
491 50 m 1,0,1
 390 -9 390 -9 284 -9 c 0,2,3
 228 -9 228 -9 182.5 9 c 128,-1,4
 137 27 137 27 104.5 60 c 128,-1,5
 72 93 72 93 54.5 139 c 128,-1,6
 37 185 37 185 37 242 c 256,7,8
 37 299 37 299 55.5 346.5 c 128,-1,9
 74 394 74 394 106.5 428 c 128,-1,10
 139 462 139 462 184.5 481 c 128,-1,11
 230 500 230 500 284 500 c 0,12,13
 383 500 383 500 437.5 441.5 c 128,-1,14
 492 383 492 383 492 274 c 2,15,-1
 492 255 l 1,16,-1
 165 255 l 1,17,-1
 165 252 l 2,18,19
 165 165 165 165 208 117 c 128,-1,20
 251 69 251 69 326 69 c 0,21,22
 405 69 405 69 491 124 c 1,23,-1
 491 50 l 1,0,1
361 319 m 2,24,25
 361 382 361 382 338.5 413.5 c 128,-1,26
 316 445 316 445 274 445 c 0,27,28
 229 445 229 445 200.5 409.5 c 128,-1,29
 172 374 172 374 170 308 c 1,30,-1
 361 308 l 1,31,-1
 361 319 l 2,24,25
EndSplineSet
EndChar

StartChar: f
Encoding: 102 102 47
Width: 341
GlyphClass: 2
Flags: W
LayerCount: 2
Fore
SplineSet
31 46 m 1,0,-1
 81 51 l 1,1,-1
 95 67 l 1,2,-1
 95 414 l 1,3,-1
 30 414 l 1,4,-1
 30 452 l 1,5,-1
 95 482 l 1,6,7
 95 626 95 626 197 701 c 0,8,9
 225 722 225 722 256 732.5 c 128,-1,10
 287 743 287 743 318 743 c 0,11,12
 362 743 362 743 387 722.5 c 128,-1,13
 412 702 412 702 412 670 c 0,14,15
 412 628 412 628 354 608 c 1,16,-1
 257 694 l 1,17,18
 218 653 218 653 218 542 c 2,19,-1
 218 534 l 1,20,-1
 218 474 l 1,21,-1
 352 474 l 1,22,-1
 352 414 l 1,23,-1
 218 414 l 1,24,-1
 218 66 l 1,25,-1
 234 51 l 1,26,-1
 301 46 l 1,27,-1
 301 0 l 1,28,-1
 31 0 l 1,29,-1
 31 46 l 1,0,-1
EndSplineSet
EndChar

StartChar: g
Encoding: 103 103 48
Width: 551
GlyphClass: 2
Flags: W
LayerCount: 2
Fore
SplineSet
555 468 m 1,0,-1
 555 411 l 1,1,-1
 447 411 l 1,2,3
 469 373 469 373 469 334 c 0,4,5
 469 298 469 298 454.5 267.5 c 128,-1,6
 440 237 440 237 412.5 215 c 128,-1,7
 385 193 385 193 345.5 180.5 c 128,-1,8
 306 168 306 168 257 168 c 0,9,10
 250 168 250 168 243 168 c 128,-1,11
 236 168 236 168 228 169 c 1,12,13
 220 148 220 148 220 132 c 0,14,15
 220 120 220 120 223 105 c 1,16,-1
 291 96 l 2,17,18
 345 88 345 88 386 78 c 128,-1,19
 427 68 427 68 454.5 52 c 128,-1,20
 482 36 482 36 496 14 c 128,-1,21
 510 -8 510 -8 510 -40 c 0,22,23
 510 -75 510 -75 490.5 -107 c 128,-1,24
 471 -139 471 -139 436 -163.5 c 128,-1,25
 401 -188 401 -188 351 -202.5 c 128,-1,26
 301 -217 301 -217 241 -217 c 0,27,28
 141 -217 141 -217 87.5 -179.5 c 128,-1,29
 34 -142 34 -142 34 -80 c 0,30,31
 34 -33 34 -33 61.5 -4 c 128,-1,32
 89 25 89 25 137 30 c 1,33,34
 124 57 124 57 124 80 c 0,35,36
 124 105 124 105 137.5 127.5 c 128,-1,37
 151 150 151 150 179 175 c 1,38,39
 118 192 118 192 86.5 231.5 c 128,-1,40
 55 271 55 271 55 325 c 0,41,42
 55 363 55 363 69.5 395 c 128,-1,43
 84 427 84 427 112 449.5 c 128,-1,44
 140 472 140 472 179.5 484.5 c 128,-1,45
 219 497 219 497 269 497 c 0,46,47
 336 497 336 497 407 468 c 1,48,-1
 555 468 l 1,0,-1
267 450 m 0,49,50
 229 450 229 450 206 419.5 c 128,-1,51
 183 389 183 389 183 334 c 0,52,53
 183 277 183 277 206 245 c 128,-1,54
 229 213 229 213 265 213 c 0,55,56
 300 213 300 213 323 245.5 c 128,-1,57
 346 278 346 278 346 335 c 0,58,59
 346 389 346 389 323 419.5 c 128,-1,60
 300 450 300 450 267 450 c 0,49,50
198 19 m 1,61,62
 156 -16 156 -16 156 -64 c 0,63,64
 156 -105 156 -105 188.5 -134.5 c 128,-1,65
 221 -164 221 -164 272 -164 c 0,66,67
 299 -164 299 -164 321 -156.5 c 128,-1,68
 343 -149 343 -149 358.5 -136 c 128,-1,69
 374 -123 374 -123 382.5 -106 c 128,-1,70
 391 -89 391 -89 391 -70 c 0,71,72
 391 -33 391 -33 364 -18.5 c 128,-1,73
 337 -4 337 -4 283 5 c 2,74,-1
 198 19 l 1,61,62
EndSplineSet
EndChar

StartChar: h
Encoding: 104 104 49
Width: 597
GlyphClass: 2
Flags: W
LayerCount: 2
Fore
SplineSet
212 739 m 1,0,-1
 212 437 l 1,1,2
 266 466 266 466 307.5 482 c 128,-1,3
 349 498 349 498 383 498 c 0,4,5
 520 498 520 498 520 332 c 2,6,-1
 520 64 l 1,7,-1
 533 49 l 1,8,-1
 586 45 l 1,9,-1
 586 0 l 1,10,-1
 341 0 l 1,11,-1
 341 45 l 1,12,-1
 384 49 l 1,13,-1
 398 64 l 1,14,-1
 398 303 l 2,15,16
 398 359 398 359 376.5 385 c 128,-1,17
 355 411 355 411 308 411 c 0,18,19
 271 411 271 411 212 394 c 1,20,-1
 212 64 l 1,21,-1
 227 49 l 1,22,-1
 271 45 l 1,23,-1
 271 0 l 1,24,-1
 24 0 l 1,25,-1
 24 45 l 1,26,-1
 75 49 l 1,27,-1
 89 64 l 1,28,-1
 89 653 l 1,29,-1
 16 653 l 1,30,-1
 16 692 l 1,31,-1
 164 739 l 1,32,-1
 212 739 l 1,0,-1
EndSplineSet
EndChar

StartChar: i
Encoding: 105 105 50
Width: 305
GlyphClass: 2
Flags: W
LayerCount: 2
Fore
SplineSet
162 724 m 0,0,1
 196 724 196 724 216.5 703 c 128,-1,2
 237 682 237 682 237 651 c 0,3,4
 237 617 237 617 216 596 c 128,-1,5
 195 575 195 575 163 575 c 0,6,7
 133 575 133 575 111.5 595.5 c 128,-1,8
 90 616 90 616 90 649 c 0,9,10
 90 681 90 681 110.5 702.5 c 128,-1,11
 131 724 131 724 162 724 c 0,0,1
221 496 m 1,12,-1
 221 64 l 1,13,-1
 236 49 l 1,14,-1
 292 45 l 1,15,-1
 292 0 l 1,16,-1
 30 0 l 1,17,-1
 30 45 l 1,18,-1
 84 49 l 1,19,-1
 98 64 l 1,20,-1
 98 409 l 1,21,-1
 32 409 l 1,22,-1
 32 449 l 1,23,-1
 173 496 l 1,24,-1
 221 496 l 1,12,-1
EndSplineSet
EndChar

StartChar: j
Encoding: 106 106 51
Width: 297
GlyphClass: 2
Flags: W
LayerCount: 2
Fore
SplineSet
38 409 m 1,0,-1
 38 448 l 1,1,-1
 189 496 l 1,2,-1
 231 496 l 1,3,-1
 231 98 l 2,4,5
 231 23 231 23 221 -33.5 c 128,-1,6
 211 -90 211 -90 177 -134 c 0,7,8
 148 -172 148 -172 103.5 -193 c 128,-1,9
 59 -214 59 -214 11 -214 c 0,10,11
 -31 -214 -31 -214 -55.5 -194 c 128,-1,12
 -80 -174 -80 -174 -80 -144 c 0,13,14
 -80 -120 -80 -120 -64.5 -101.5 c 128,-1,15
 -49 -83 -49 -83 -22 -78 c 1,16,-1
 76 -169 l 1,17,18
 95 -143 95 -143 102 -94 c 128,-1,19
 109 -45 109 -45 109 29 c 2,20,-1
 109 409 l 1,21,-1
 38 409 l 1,0,-1
94 649 m 256,22,23
 94 682 94 682 114.5 703 c 128,-1,24
 135 724 135 724 169 724 c 0,25,26
 200 724 200 724 221 702.5 c 128,-1,27
 242 681 242 681 242 648 c 0,28,29
 242 617 242 617 220 596 c 128,-1,30
 198 575 198 575 167 575 c 0,31,32
 137 575 137 575 115.5 595.5 c 128,-1,33
 94 616 94 616 94 649 c 256,22,23
EndSplineSet
EndChar

StartChar: k
Encoding: 107 107 52
Width: 553
GlyphClass: 2
Flags: W
LayerCount: 2
Fore
SplineSet
25 44 m 1,0,-1
 77 49 l 1,1,-1
 91 64 l 1,2,-1
 91 653 l 1,3,-1
 18 653 l 1,4,-1
 18 692 l 1,5,-1
 172 739 l 1,6,-1
 214 739 l 1,7,-1
 214 259 l 1,8,-1
 236 259 l 1,9,-1
 379 426 l 1,10,-1
 372 437 l 1,11,-1
 328 442 l 1,12,-1
 328 486 l 1,13,-1
 532 486 l 1,14,-1
 532 442 l 1,15,-1
 467 434 l 1,16,-1
 353 307 l 1,17,-1
 512 49 l 1,18,-1
 571 44 l 1,19,-1
 571 0 l 1,20,-1
 379 0 l 1,21,-1
 379 39 l 1,22,-1
 263 226 l 1,23,-1
 214 226 l 1,24,-1
 214 62 l 1,25,-1
 227 48 l 1,26,-1
 277 44 l 1,27,-1
 277 0 l 1,28,-1
 25 0 l 1,29,-1
 25 44 l 1,0,-1
EndSplineSet
EndChar

StartChar: l
Encoding: 108 108 53
Width: 304
GlyphClass: 2
Flags: W
LayerCount: 2
Fore
SplineSet
23 44 m 1,0,-1
 81 50 l 1,1,-1
 95 64 l 1,2,-1
 95 652 l 1,3,-1
 23 652 l 1,4,-1
 23 691 l 1,5,-1
 174 739 l 1,6,-1
 218 739 l 1,7,-1
 218 66 l 1,8,-1
 233 50 l 1,9,-1
 291 44 l 1,10,-1
 291 0 l 1,11,-1
 23 0 l 1,12,-1
 23 44 l 1,0,-1
EndSplineSet
EndChar

StartChar: m
Encoding: 109 109 54
Width: 892
GlyphClass: 2
Flags: W
LayerCount: 2
Fore
SplineSet
501 430 m 1,0,1
 561 465 561 465 605.5 481.5 c 128,-1,2
 650 498 650 498 678 498 c 0,3,4
 817 498 817 498 817 332 c 2,5,-1
 817 64 l 1,6,-1
 830 49 l 1,7,-1
 883 45 l 1,8,-1
 883 0 l 1,9,-1
 637 0 l 1,10,-1
 637 45 l 1,11,-1
 680 49 l 1,12,-1
 694 64 l 1,13,-1
 694 303 l 2,14,15
 694 360 694 360 673 385.5 c 128,-1,16
 652 411 652 411 602 411 c 0,17,18
 583 411 583 411 562 406 c 128,-1,19
 541 401 541 401 516 392 c 1,20,-1
 516 64 l 1,21,-1
 530 49 l 1,22,-1
 575 44 l 1,23,-1
 575 0 l 1,24,-1
 339 0 l 1,25,-1
 339 45 l 1,26,-1
 380 49 l 1,27,-1
 394 66 l 1,28,-1
 394 309 l 2,29,30
 394 362 394 362 373 387 c 128,-1,31
 352 412 352 412 304 412 c 0,32,33
 268 412 268 412 220 394 c 1,34,-1
 220 64 l 1,35,-1
 234 49 l 1,36,-1
 276 45 l 1,37,-1
 276 0 l 1,38,-1
 31 0 l 1,39,-1
 31 45 l 1,40,-1
 82 49 l 1,41,-1
 96 64 l 1,42,-1
 96 409 l 1,43,-1
 31 409 l 1,44,-1
 31 449 l 1,45,-1
 172 496 l 1,46,-1
 220 496 l 1,47,-1
 220 437 l 1,48,49
 271 467 271 467 311 483.5 c 128,-1,50
 351 500 351 500 384 500 c 0,51,52
 460 500 460 500 501 430 c 1,0,1
EndSplineSet
EndChar

StartChar: n
Encoding: 110 110 55
Width: 605
GlyphClass: 2
Flags: W
LayerCount: 2
Fore
SplineSet
31 45 m 1,0,-1
 82 49 l 1,1,-1
 96 64 l 1,2,-1
 96 409 l 1,3,-1
 28 409 l 1,4,-1
 28 449 l 1,5,-1
 172 496 l 1,6,-1
 220 496 l 1,7,-1
 220 437 l 1,8,9
 274 466 274 466 316 482 c 128,-1,10
 358 498 358 498 391 498 c 0,11,12
 527 498 527 498 527 332 c 2,13,-1
 527 64 l 1,14,-1
 540 49 l 1,15,-1
 593 45 l 1,16,-1
 593 0 l 1,17,-1
 348 0 l 1,18,-1
 348 45 l 1,19,-1
 391 49 l 1,20,-1
 405 64 l 1,21,-1
 405 303 l 2,22,23
 405 359 405 359 384 385 c 128,-1,24
 363 411 363 411 315 411 c 0,25,26
 279 411 279 411 220 394 c 1,27,-1
 220 64 l 1,28,-1
 234 49 l 1,29,-1
 278 45 l 1,30,-1
 278 0 l 1,31,-1
 31 0 l 1,32,-1
 31 45 l 1,0,-1
EndSplineSet
EndChar

StartChar: o
Encoding: 111 111 56
Width: 577
GlyphClass: 2
Flags: W
LayerCount: 2
Fore
SplineSet
296 499 m 0,0,1
 353 499 353 499 399.5 481 c 128,-1,2
 446 463 446 463 479 429.5 c 128,-1,3
 512 396 512 396 529.5 348.5 c 128,-1,4
 547 301 547 301 547 241 c 0,5,6
 547 185 547 185 528.5 139.5 c 128,-1,7
 510 94 510 94 476.5 61 c 128,-1,8
 443 28 443 28 395 10 c 128,-1,9
 347 -8 347 -8 288 -8 c 0,10,11
 232 -8 232 -8 185.5 10 c 128,-1,12
 139 28 139 28 106 61 c 128,-1,13
 73 94 73 94 55 140 c 128,-1,14
 37 186 37 186 37 243 c 0,15,16
 37 301 37 301 55.5 348 c 128,-1,17
 74 395 74 395 107.5 428.5 c 128,-1,18
 141 462 141 462 189 480.5 c 128,-1,19
 237 499 237 499 296 499 c 0,0,1
292 446 m 256,20,21
 238 446 238 446 207 395 c 128,-1,22
 176 344 176 344 176 247 c 0,23,24
 176 148 176 148 207 96.5 c 128,-1,25
 238 45 238 45 291 45 c 0,26,27
 347 45 347 45 378 95.5 c 128,-1,28
 409 146 409 146 409 244 c 0,29,30
 409 343 409 343 377.5 394.5 c 128,-1,31
 346 446 346 446 292 446 c 256,20,21
EndSplineSet
EndChar

StartChar: p
Encoding: 112 112 57
Width: 591
GlyphClass: 2
Flags: W
LayerCount: 2
Fore
SplineSet
23 -173 m 1,0,-1
 77 -168 l 1,1,-1
 91 -153 l 1,2,-1
 91 409 l 1,3,-1
 22 409 l 1,4,-1
 22 449 l 1,5,-1
 168 496 l 1,6,-1
 213 496 l 1,7,-1
 213 436 l 1,8,9
 258 467 258 467 296 483 c 128,-1,10
 334 499 334 499 371 499 c 0,11,12
 411 499 411 499 445.5 482 c 128,-1,13
 480 465 480 465 505.5 433.5 c 128,-1,14
 531 402 531 402 545.5 358.5 c 128,-1,15
 560 315 560 315 560 263 c 0,16,17
 560 203 560 203 541.5 154 c 128,-1,18
 523 105 523 105 488.5 70.5 c 128,-1,19
 454 36 454 36 405 17.5 c 128,-1,20
 356 -1 356 -1 295 -1 c 0,21,22
 262 -1 262 -1 213 5 c 1,23,-1
 213 -155 l 1,24,-1
 228 -169 l 1,25,-1
 291 -173 l 1,26,-1
 290 -219 l 1,27,-1
 23 -219 l 1,28,-1
 23 -173 l 1,0,-1
213 60 m 1,29,30
 245 53 245 53 277 53 c 0,31,32
 343 53 343 53 383.5 104.5 c 128,-1,33
 424 156 424 156 424 246 c 0,34,35
 424 327 424 327 388.5 370 c 128,-1,36
 353 413 353 413 292 413 c 0,37,38
 260 413 260 413 213 394 c 1,39,-1
 213 60 l 1,29,30
EndSplineSet
EndChar

StartChar: q
Encoding: 113 113 58
Width: 575
GlyphClass: 2
Flags: W
LayerCount: 2
Fore
SplineSet
509 486 m 1,0,1
 506 435 506 435 506 428 c 2,2,-1
 506 -155 l 1,3,-1
 521 -169 l 1,4,-1
 571 -173 l 1,5,-1
 571 -218 l 1,6,-1
 304 -218 l 1,7,-1
 304 -172 l 1,8,-1
 368 -168 l 1,9,-1
 383 -154 l 1,10,-1
 383 43 l 1,11,12
 298 -4 298 -4 234 -4 c 0,13,14
 192 -4 192 -4 155.5 13 c 128,-1,15
 119 30 119 30 93 60.5 c 128,-1,16
 67 91 67 91 52 134 c 128,-1,17
 37 177 37 177 37 229 c 0,18,19
 37 357 37 357 118.5 428 c 128,-1,20
 200 499 200 499 353 499 c 0,21,22
 387 499 387 499 425.5 495.5 c 128,-1,23
 464 492 464 492 509 486 c 1,0,1
383 439 m 1,24,25
 369 441 369 441 357 442.5 c 128,-1,26
 345 444 345 444 333 444 c 0,27,28
 255 444 255 444 213.5 394 c 128,-1,29
 172 344 172 344 172 250 c 0,30,31
 172 165 172 165 209.5 120 c 128,-1,32
 247 75 247 75 313 75 c 0,33,34
 327 75 327 75 345 76.5 c 128,-1,35
 363 78 363 78 383 82 c 1,36,-1
 383 439 l 1,24,25
EndSplineSet
EndChar

StartChar: r
Encoding: 114 114 59
Width: 421
GlyphClass: 2
Flags: W
LayerCount: 2
Fore
SplineSet
29 45 m 1,0,-1
 82 49 l 1,1,-1
 96 64 l 1,2,-1
 96 409 l 1,3,-1
 24 409 l 1,4,-1
 24 449 l 1,5,-1
 171 496 l 1,6,-1
 219 496 l 1,7,-1
 215 394 l 1,8,9
 242 423 242 423 271.5 448.5 c 128,-1,10
 301 474 301 474 332 496 c 0,11,12
 337 497 337 497 343 497.5 c 128,-1,13
 349 498 349 498 354 498 c 0,14,15
 386 498 386 498 420 481 c 1,16,-1
 407 343 l 1,17,-1
 355 343 l 1,18,19
 333 379 333 379 290 379 c 0,20,21
 265 379 265 379 219 351 c 1,22,-1
 219 64 l 1,23,-1
 234 49 l 1,24,-1
 305 45 l 1,25,-1
 305 0 l 1,26,-1
 29 0 l 1,27,-1
 29 45 l 1,0,-1
EndSplineSet
EndChar

StartChar: s
Encoding: 115 115 60
Width: 447
GlyphClass: 2
Flags: W
LayerCount: 2
Fore
SplineSet
395 342 m 1,0,-1
 335 342 l 1,1,-1
 325 417 l 1,2,-1
 313 428 l 1,3,4
 279 444 279 444 247 444 c 0,5,6
 210 444 210 444 190.5 428 c 128,-1,7
 171 412 171 412 171 384 c 0,8,9
 171 368 171 368 177 356.5 c 128,-1,10
 183 345 183 345 195 335 c 128,-1,11
 207 325 207 325 224.5 316 c 128,-1,12
 242 307 242 307 264 296 c 0,13,14
 297 280 297 280 324 266 c 128,-1,15
 351 252 351 252 370 236 c 128,-1,16
 389 220 389 220 399.5 200.5 c 128,-1,17
 410 181 410 181 410 154 c 0,18,19
 410 78 410 78 356.5 33.5 c 128,-1,20
 303 -11 303 -11 206 -11 c 0,21,22
 132 -11 132 -11 41 14 c 1,23,-1
 41 162 l 1,24,-1
 102 162 l 1,25,-1
 113 76 l 1,26,-1
 123 65 l 1,27,28
 162 44 162 44 207 44 c 0,29,30
 248 44 248 44 270 63.5 c 128,-1,31
 292 83 292 83 292 116 c 0,32,33
 292 136 292 136 282.5 149.5 c 128,-1,34
 273 163 273 163 255.5 173.5 c 128,-1,35
 238 184 238 184 213.5 194 c 128,-1,36
 189 204 189 204 160 219 c 0,37,38
 104 247 104 247 76 276.5 c 128,-1,39
 48 306 48 306 48 351 c 0,40,41
 48 416 48 416 99.5 458 c 128,-1,42
 151 500 151 500 244 500 c 0,43,44
 320 500 320 500 395 475 c 1,45,-1
 395 342 l 1,0,-1
EndSplineSet
EndChar

StartChar: t
Encoding: 116 116 61
Width: 358
GlyphClass: 2
Flags: W
LayerCount: 2
Fore
SplineSet
19 414 m 1,0,-1
 19 452 l 1,1,-1
 93 494 l 1,2,-1
 145 598 l 1,3,-1
 208 598 l 1,4,-1
 208 474 l 1,5,-1
 356 474 l 1,6,-1
 356 414 l 1,7,-1
 208 414 l 1,8,-1
 208 165 l 2,9,10
 208 138 208 138 211.5 119.5 c 128,-1,11
 215 101 215 101 224.5 89.5 c 128,-1,12
 234 78 234 78 250 73 c 128,-1,13
 266 68 266 68 291 68 c 0,14,15
 328 68 328 68 356 75 c 1,16,-1
 356 27 l 1,17,18
 311 10 311 10 272.5 2.5 c 128,-1,19
 234 -5 234 -5 203 -5 c 0,20,21
 178 -5 178 -5 157.5 0 c 128,-1,22
 137 5 137 5 120 17 c 0,23,24
 94 34 94 34 89 59.5 c 128,-1,25
 84 85 84 85 84 123 c 2,26,-1
 84 414 l 1,27,-1
 19 414 l 1,0,-1
EndSplineSet
EndChar

StartChar: u
Encoding: 117 117 62
Width: 600
GlyphClass: 2
Flags: W
LayerCount: 2
Fore
SplineSet
212 499 m 1,0,-1
 212 189 l 2,1,2
 212 130 212 130 233.5 103.5 c 128,-1,3
 255 77 255 77 307 77 c 0,4,5
 326 77 326 77 347 81 c 128,-1,6
 368 85 368 85 393 93 c 1,7,-1
 393 412 l 1,8,-1
 328 412 l 1,9,-1
 328 451 l 1,10,-1
 470 499 l 1,11,-1
 516 499 l 1,12,-1
 516 64 l 1,13,-1
 530 49 l 1,14,-1
 582 45 l 1,15,-1
 582 0 l 1,16,-1
 393 0 l 1,17,-1
 393 55 l 1,18,19
 345 24 345 24 305 7.5 c 128,-1,20
 265 -9 265 -9 225 -9 c 0,21,22
 88 -9 88 -9 88 162 c 2,23,-1
 88 412 l 1,24,-1
 23 412 l 1,25,-1
 23 451 l 1,26,-1
 164 499 l 1,27,-1
 212 499 l 1,0,-1
EndSplineSet
EndChar

StartChar: v
Encoding: 118 118 63
Width: 513
GlyphClass: 2
Flags: W
LayerCount: 2
Fore
SplineSet
248 487 m 1,0,-1
 248 441 l 1,1,-1
 196 436 l 1,2,-1
 185 423 l 1,3,-1
 289 131 l 1,4,-1
 403 422 l 1,5,-1
 395 436 l 1,6,-1
 344 441 l 1,7,-1
 344 487 l 1,8,-1
 534 487 l 1,9,-1
 534 441 l 1,10,-1
 476 434 l 1,11,-1
 304 0 l 1,12,-1
 214 0 l 1,13,-1
 54 435 l 1,14,-1
 -6 441 l 1,15,-1
 -6 487 l 1,16,-1
 248 487 l 1,0,-1
EndSplineSet
EndChar

StartChar: w
Encoding: 119 119 64
Width: 799
GlyphClass: 2
Flags: W
LayerCount: 2
Fore
SplineSet
247 487 m 1,0,-1
 247 441 l 1,1,-1
 198 434 l 1,2,-1
 187 420 l 1,3,-1
 268 132 l 1,4,-1
 385 487 l 1,5,-1
 485 487 l 1,6,-1
 594 132 l 1,7,-1
 682 421 l 1,8,-1
 675 435 l 1,9,-1
 622 441 l 1,10,-1
 622 487 l 1,11,-1
 811 487 l 1,12,-1
 811 441 l 1,13,-1
 755 434 l 1,14,-1
 619 0 l 1,15,-1
 518 0 l 1,16,-1
 407 359 l 1,17,-1
 288 0 l 1,18,-1
 188 0 l 1,19,-1
 59 435 l 1,20,-1
 -1 441 l 1,21,-1
 -1 487 l 1,22,-1
 247 487 l 1,0,-1
EndSplineSet
EndChar

StartChar: x
Encoding: 120 120 65
Width: 531
GlyphClass: 2
Flags: W
LayerCount: 2
Fore
SplineSet
255 487 m 1,0,-1
 255 445 l 1,1,-1
 217 439 l 1,2,-1
 212 428 l 1,3,-1
 292 309 l 1,4,-1
 379 434 l 1,5,-1
 328 443 l 1,6,-1
 328 487 l 1,7,-1
 512 487 l 1,8,-1
 512 441 l 1,9,-1
 457 434 l 1,10,-1
 329 268 l 1,11,-1
 478 53 l 1,12,-1
 531 44 l 1,13,-1
 531 0 l 1,14,-1
 297 0 l 1,15,-1
 297 39 l 1,16,-1
 332 48 l 1,17,-1
 336 58 l 1,18,-1
 248 192 l 1,19,-1
 154 54 l 1,20,-1
 205 44 l 1,21,-1
 205 0 l 1,22,-1
 11 0 l 1,23,-1
 11 44 l 1,24,-1
 70 55 l 1,25,-1
 210 234 l 1,26,-1
 71 433 l 1,27,-1
 14 441 l 1,28,-1
 14 487 l 1,29,-1
 255 487 l 1,0,-1
EndSplineSet
EndChar

StartChar: y
Encoding: 121 121 66
Width: 515
GlyphClass: 2
Flags: W
LayerCount: 2
Fore
SplineSet
250 486 m 1,0,-1
 250 443 l 1,1,-1
 199 437 l 1,2,-1
 189 423 l 1,3,-1
 297 140 l 1,4,-1
 406 422 l 1,5,-1
 397 437 l 1,6,-1
 344 443 l 1,7,-1
 344 486 l 1,8,-1
 536 486 l 1,9,-1
 536 443 l 1,10,-1
 482 434 l 1,11,-1
 289 -35 l 2,12,13
 252 -124 252 -124 202.5 -171.5 c 128,-1,14
 153 -219 153 -219 103 -219 c 0,15,16
 66 -219 66 -219 41.5 -196.5 c 128,-1,17
 17 -174 17 -174 17 -145 c 0,18,19
 17 -123 17 -123 30.5 -105 c 128,-1,20
 44 -87 44 -87 69 -74 c 1,21,-1
 156 -134 l 1,22,23
 197 -101 197 -101 234 -12 c 1,24,-1
 56 434 l 1,25,-1
 -4 443 l 1,26,-1
 -4 486 l 1,27,-1
 250 486 l 1,0,-1
EndSplineSet
EndChar

StartChar: z
Encoding: 122 122 67
Width: 495
GlyphClass: 2
Flags: W
LayerCount: 2
Fore
SplineSet
46 62 m 1,0,-1
 304 432 l 1,1,-1
 142 432 l 1,2,-1
 129 418 l 1,3,-1
 119 335 l 1,4,-1
 54 335 l 1,5,-1
 54 486 l 1,6,-1
 450 486 l 1,7,-1
 450 434 l 1,8,-1
 185 56 l 1,9,-1
 370 56 l 1,10,-1
 385 72 l 1,11,-1
 397 164 l 1,12,-1
 465 164 l 1,13,-1
 465 0 l 1,14,-1
 46 0 l 1,15,-1
 46 62 l 1,0,-1
EndSplineSet
EndChar

StartChar: tilde
Encoding: 732 732 68
Width: 500
GlyphClass: 2
Flags: W
LayerCount: 2
Fore
SplineSet
411 722 m 1,0,-1
 411 706 l 2,1,2
 411 648 411 648 387.5 617.5 c 128,-1,3
 364 587 364 587 324 587 c 0,4,5
 300 587 300 587 278.5 594 c 128,-1,6
 257 601 257 601 238.5 610 c 128,-1,7
 220 619 220 619 205 626 c 128,-1,8
 190 633 190 633 179 633 c 0,9,10
 142 633 142 633 142 580 c 2,11,-1
 142 570 l 1,12,-1
 87 570 l 1,13,-1
 87 587 l 2,14,15
 87 645 87 645 109.5 675.5 c 128,-1,16
 132 706 132 706 174 706 c 0,17,18
 196 706 196 706 216.5 698.5 c 128,-1,19
 237 691 237 691 255 682.5 c 128,-1,20
 273 674 273 674 289 666.5 c 128,-1,21
 305 659 305 659 318 659 c 0,22,23
 357 659 357 659 357 714 c 2,24,-1
 357 722 l 1,25,-1
 411 722 l 1,0,-1
EndSplineSet
EndChar

StartChar: dieresis
Encoding: 168 168 69
Width: 500
GlyphClass: 2
Flags: W
LayerCount: 2
Fore
SplineSet
147 710 m 256,0,1
 173 710 173 710 191.5 691 c 128,-1,2
 210 672 210 672 210 644 c 0,3,4
 210 617 210 617 191.5 598 c 128,-1,5
 173 579 173 579 147 579 c 256,6,7
 121 579 121 579 102 598 c 128,-1,8
 83 617 83 617 83 644 c 0,9,10
 83 672 83 672 102 691 c 128,-1,11
 121 710 121 710 147 710 c 256,0,1
353 710 m 256,12,13
 379 710 379 710 397.5 691 c 128,-1,14
 416 672 416 672 416 644 c 0,15,16
 416 617 416 617 397.5 598 c 128,-1,17
 379 579 379 579 353 579 c 0,18,19
 326 579 326 579 308 598 c 128,-1,20
 290 617 290 617 290 644 c 0,21,22
 290 672 290 672 308.5 691 c 128,-1,23
 327 710 327 710 353 710 c 256,12,13
EndSplineSet
EndChar

StartChar: acute
Encoding: 180 180 70
Width: 500
GlyphClass: 2
Flags: W
LayerCount: 2
Fore
SplineSet
427 742 m 1,0,-1
 273 552 l 1,1,-1
 206 552 l 1,2,-1
 303 742 l 1,3,-1
 427 742 l 1,0,-1
EndSplineSet
EndChar

StartChar: dotlessi
Encoding: 305 305 85
Width: 305
GlyphClass: 2
Flags: W
LayerCount: 2
Fore
SplineSet
221 496 m 1,0,-1
 221 64 l 1,1,-1
 236 49 l 1,2,-1
 292 45 l 1,3,-1
 292 0 l 1,4,-1
 30 0 l 1,5,-1
 30 45 l 1,6,-1
 84 49 l 1,7,-1
 98 64 l 1,8,-1
 98 409 l 1,9,-1
 32 409 l 1,10,-1
 32 449 l 1,11,-1
 173 496 l 1,12,-1
 221 496 l 1,0,-1
EndSplineSet
EndChar
